# xmcd
#
# Track frame offsets: 
#        150
#        13169
#        26797
#        39253
#        51430
#        64145
#        79345
#        91097
#        103016
#        111935
#        125854
#        139283
#        150790
#        160090
#        169802
#
# Disc length: 2408 seconds
#
# Revision: 0
# Processed by: cddbd v1.5.2PL0 Copyright (c) Steve Scherf et al.
# Submitted via: ExactAudioCopy v0.99pb4
#
DISCID=c609660f
DTITLE=Little Walter - Confessin' the Blues
DYEAR=1900
DGENRE=Blues
TTITLE0=It Ain't Right
TTITLE1=Rocker
TTITLE2=I Got to Find My Baby
TTITLE3=One More Chance With You
TTITLE4=Lights Out
TTITLE5=Crazy Legs
TTITLE6=Temperature
TTITLE7=I Got To Go
TTITLE8=Crazy Mixed Up World
TTITLE9=Quarter to Twelve
TTITLE10=Confessin' The Blues
TTITLE11=The Toddle
TTITLE12=Up the Line
TTITLE13=Rock Bottom
TTITLE14=Mean Old Frisco
EXTD=
EXTT0=
EXTT1=
EXTT2=
EXTT3=
EXTT4=
EXTT5=
EXTT6=
EXTT7=
EXTT8=
EXTT9=
EXTT10=
EXTT11=
EXTT12=
EXTT13=
EXTT14=
PLAYORDER=
